<?xml version="1.0" encoding="UTF-8"?><svg id="Layer_2" xmlns="http://www.w3.org/2000/svg" viewBox="0 0 189.75 38.07"><g id="Layer_1-2"><path d="M12.98,20.27l3.31-8.29,3.27,8.29h-6.58ZM0,31.87h8.5l2.09-5.28h11.35l2.09,5.28h8.71L20.27,2.34h-7.83L0,31.87Z" style="fill:#1d1d1b;"/><polygon points="30.56 31.87 38.6 31.87 38.6 15.79 51.17 31.87 58.25 31.87 58.25 2.55 50.2 2.55 50.2 18.05 38.14 2.55 30.56 2.55 30.56 31.87" style="fill:#1d1d1b;"/><polygon points="59.76 31.87 67.88 31.87 67.88 24.25 70.86 20.98 78.27 31.87 87.99 31.87 76.51 15.11 87.61 2.55 78.02 2.55 67.88 14.44 67.88 2.55 59.76 2.55 59.76 31.87" style="fill:#1d1d1b;"/><polygon points="88.2 31.87 110.52 31.87 110.52 24.75 96.32 24.75 96.32 2.55 88.2 2.55 88.2 31.87" style="fill:#1d1d1b;"/><path d="M129.48,31.87c4.06,0,6.66-1.76,8.84-4.19l-2.05-1.93c-1.72,1.84-3.85,3.22-6.62,3.22-4.52,0-7.96-3.73-7.96-8.42v-.08c0-4.65,3.35-8.38,7.75-8.38,2.93,0,4.86,1.47,6.58,3.27l2.14-2.26c-2.01-2.14-4.57-3.85-8.67-3.85-6.32,0-11.1,5.19-11.1,11.31v.08c0,6.07,4.77,11.22,11.1,11.22" style="fill:#1d1d1b;"/><path d="M150.72,29.27c-2.93,0-5.44-1.59-5.44-4.31v-.08c0-2.72,2.26-4.48,6.32-4.48,2.64,0,4.77.46,6.37.92v2.09c0,3.43-3.27,5.86-7.25,5.86M150.09,31.83c3.81,0,6.32-1.76,7.83-3.73v3.27h3.1v-13.23c0-2.76-.75-4.86-2.22-6.32-1.59-1.59-3.94-2.39-6.99-2.39s-5.49.71-7.87,1.8l.96,2.64c2.01-.92,4.02-1.59,6.58-1.59,4.06,0,6.45,2.01,6.45,5.91v.75c-1.93-.54-3.9-.92-6.66-.92-5.49,0-9.26,2.43-9.26,6.99v.08c0,4.44,4.06,6.74,8.08,6.74Z" style="fill:#1d1d1b;"/><path d="M178.82,28.94c-4.02,0-7.83-3.35-7.83-8.38v-.08c0-4.94,3.81-8.33,7.83-8.33s7.62,3.27,7.62,8.38v.08c0,5.24-3.43,8.33-7.62,8.33M167.89,38.07h3.22v-10.85c1.68,2.43,4.27,4.61,8.29,4.61,5.24,0,10.35-4.19,10.35-11.27v-.08c0-7.12-5.15-11.22-10.35-11.22-3.98,0-6.53,2.22-8.29,4.82v-4.36h-3.22v28.35Z" style="fill:#1d1d1b;"/><rect x="113.51" width="2" height="32.56" style="fill:#1d1d1b;"/></g></svg>